<?xml version="1.0" standalone="no"?>
<!DOCTYPE svg PUBLIC "-//W3C//DTD SVG 1.1//EN" "http://www.w3.org/Graphics/SVG/1.1/DTD/svg11.dtd" >
<svg xmlns="http://www.w3.org/2000/svg" xmlns:xlink="http://www.w3.org/1999/xlink" version="1.1">
<metadata></metadata>
<defs>
<font id="y2k_neophyteregular" horiz-adv-x="860" >
<font-face units-per-em="2048" ascent="1638" descent="-410" />
<missing-glyph horiz-adv-x="1024" />
<glyph horiz-adv-x="0" />
<glyph horiz-adv-x="682" />
<glyph unicode=" "  horiz-adv-x="1024" />
<glyph unicode="&#x09;" horiz-adv-x="1024" />
<glyph unicode="&#xa0;" horiz-adv-x="1024" />
<glyph unicode="!" horiz-adv-x="307" d="M80 0v203h137v-203h-137zM80 354v1366h137v-1366h-137z" />
<glyph unicode="&#x22;" horiz-adv-x="620" d="M86 1282v438h145v-438h-145zM383 1282v438h149v-438h-149z" />
<glyph unicode="#" horiz-adv-x="1480" d="M37 272l24 138h261l81 464h-266l25 136h266l47 272h152l-49 -272h450l49 272h150l-47 -272h264l-23 -136h-266l-82 -464h266l-24 -138h-266l-48 -272h-151l49 272h-450l-50 -272h-149l47 272h-260zM471 410h453l82 464h-453z" />
<glyph unicode="$" horiz-adv-x="858" d="M37 1159q0 150 92 264q94 117 231 150v147h138v-139q162 -12 276 -135l-49.5 -49.5t-46.5 -48.5q-74 84 -180 98v-586q139 -35 231 -147q92 -115 92 -262q0 -154 -92 -267q-90 -111 -231 -145v-158h-138v148q-164 14 -274 137q23 25 47.5 48.5t46.5 47.5q78 -84 180 -96 v584q-141 35 -231 145q-92 113 -92 264zM174 1159q0 -92 52.5 -162.5t133.5 -101.5v535q-82 -31 -134 -105t-52 -166zM498 180q80 31 133 103.5t53 167.5q0 92 -53 162.5t-133 103.5v-537z" />
<glyph unicode="%" horiz-adv-x="1320" d="M66 1456q0 119 79 203q84 84 201 84q119 0 203 -84q86 -84 86 -203q0 -121 -86 -203q-84 -84 -203 -84q-117 0 -201 84q-80 82 -79 203zM84 0l991 1720h158l-993 -1720h-156zM197 1456q0 -61 44 -105t105 -44q63 0 107.5 44t44.5 105t-44.5 106.5t-107.5 45.5 q-61 0 -105 -45t-44 -107zM680 262q0 -117 84 -201q82 -68 203 -67q117 0 200 67q86 82 86 201t-86 203q-83 86 -200 86q-121 0 -203 -86q-84 -84 -84 -203zM815 262q0 63 44.5 107.5t107.5 44.5q61 0 105 -44t44 -108q0 -61 -44 -105t-105 -44q-63 0 -107.5 44t-44.5 105z " />
<glyph unicode="&#x26;" horiz-adv-x="1415" d="M66 459q0 82 21.5 149.5t58 122.5t86 100.5t104.5 86.5q-98 111 -157.5 219t-59.5 206q0 172 123 287q127 115 299 115q174 0 288 -111q115 -131 113 -291v9q6 -86 -32 -155t-97 -123t-128 -98t-124 -83q98 -98 208 -196.5t220 -190.5q27 55 50.5 113.5t44 113.5 t40 105.5t37.5 89.5h152q-49 -104 -99.5 -241.5t-115.5 -268.5q88 -74 162.5 -133.5t123.5 -98.5l-88 -104q-43 35 -111.5 89t-154.5 122q-86 -135 -198.5 -217t-278.5 -82q-207 0 -346 121q-135 135 -137 344l-2 -1t-2 1zM207 459q0 -78 25.5 -141.5t70.5 -108.5 t108.5 -70.5t141.5 -25.5q123 0 214 74.5t157 191.5q-119 94 -248 204.5t-242 227.5q-94 -66 -160.5 -149.5t-66.5 -202.5zM264 1339q0 -70 57.5 -156t143.5 -184q47 29 99 62t106 72q55 39 91 91t36 119q0 117 -69 191t-187 74q-59 0 -109.5 -20.5t-87.5 -55.5t-58.5 -85 t-21.5 -108z" />
<glyph unicode="'" horiz-adv-x="331" d="M86 1239v481h152v-481h-152z" />
<glyph unicode="(" horiz-adv-x="391" d="M61 68h5l-5 4v1145q0 147 75 264.5t198 181.5v-162q-137 -113 -137 -287v-1142l-2 -4h2q0 -156 137 -267v-163q-123 63 -198 175.5t-75 254.5z" />
<glyph unicode=")" horiz-adv-x="393" d="M55 -199q137 106 138 267h2l-2 4v1142q0 174 -138 287v162q123 -63 198 -181t75 -265v-1145l-4 -4h4q0 -141 -75 -254t-198 -176v163z" />
<glyph unicode="*" horiz-adv-x="935" d="M31 1350l43 139l329 -121l-10 352h148l-11 -354l330 119l45 -139l-338 -101l213 -274l-118 -86l-199 289l-197 -287l-119 86l215 276z" />
<glyph unicode="+" horiz-adv-x="985" d="M10 573v138h414v436h137v-436h414v-138h-414v-438h-137v438h-414z" />
<glyph unicode="," horiz-adv-x="346" d="M86 160h166v-510h-166v510z" />
<glyph unicode="-" d="M86 573v138h686v-138h-686z" />
<glyph unicode="." horiz-adv-x="346" d="M86 0v152h166v-152h-166z" />
<glyph unicode="/" horiz-adv-x="1159" d="M6 0l987 1720h160l-993 -1720h-154z" />
<glyph unicode="0" horiz-adv-x="1157" d="M72 483h2l-2 4v752q0 209 147 356q150 150 359 150t356 -150q149 -149 147 -358v-750l-2 -4h2q2 -209 -147 -356q-152 -133 -356 -133q-207 0 -359 133q-147 147 -147 356zM207 483h2q-2 -127 106 -262q109 -109 263 -108q152 0 260 108q109 115 108 262h2l-2 4v750 q0 152 -108 260q-109 111 -260 111q-156 0 -263 -111q-110 -110 -106 -260v-750z" />
<glyph unicode="1" horiz-adv-x="370" d="M8 1583l70 137h203v-1720h-138v1583h-135z" />
<glyph unicode="2" horiz-adv-x="1118" d="M66 0v193q41 41 97 91t128 113q74 63 146.5 131t144.5 140q141 141 249.5 286.5t108.5 259.5q0 152 -108.5 273t-260.5 121q-154 0 -262 -121t-108 -270h-135q0 207 147 366q150 162 358 162q207 0 355 -162q150 -156 149 -369q0 -137 -108 -294q-74 -115 -181.5 -231 t-218 -220t-210 -190t-156.5 -144h874v-135h-1009z" />
<glyph unicode="3" horiz-adv-x="948" d="M33 125l92 96q109 -109 260 -108q154 0 260 118q109 121 109 275q0 141 -95 235q-92 98 -223 127v140l29 4q104 14 178 94q76 76 76 190q0 119 -86 215q-84 96 -201 97q-135 0 -217 -101l-96 99q127 139 313 139q174 0 297 -137q125 -137 125 -312q0 -117 -55.5 -212 t-147.5 -148q106 -68 173 -181.5t67 -248.5q0 -213 -150 -369q-150 -143 -356 -143q-209 0 -352 131z" />
<glyph unicode="4" horiz-adv-x="1191" d="M12 354v142l707 1224h31h137v-1228h272v-138h-272v-354h-137v354h-738zM166 492h584v1007z" />
<glyph unicode="5" horiz-adv-x="1234" d="M45 573h135q0 -180 129 -321q129 -139 309 -139t308 139q129 141 129 321t-129 308q-127 129 -308 129q-160 0 -280 -103l-145 82l129 731h51h682v-137h-619l-88 -506q125 70 270 70q238 0 406 -168t168 -406q0 -242 -168 -415q-170 -164 -406 -164t-405 164 q-168 174 -168 415z" />
<glyph unicode="6" horiz-adv-x="1226" d="M37 573q0 158 80 293q2 2 3 4t3 4q131 217 280.5 426t303.5 420h176l-398 -565q88 20 181 12q217 -23 366 -196q152 -176 152 -398q0 -242 -168 -415q-170 -164 -406 -164t-405 164q-168 174 -168 415zM172 573q0 -180 129 -321q129 -139 309 -139t308 139 q129 141 129 321q0 166 -111 299q-106 135 -270 158q-18 2 -31.5 3t-24.5 1q-104 0 -192 -56t-148 -132l-34 -47q-63 -100 -64 -226z" />
<glyph unicode="7" horiz-adv-x="1048" d="M25 1583v137h1009v-137l-737 -1583h-152l740 1583h-860z" />
<glyph unicode="8" horiz-adv-x="1122" d="M55 506q0 68 19.5 134.5t54.5 124.5t83 105.5t107 77.5q-182 127 -182 348q0 172 123 312q125 137 301 137q174 0 297 -137q125 -137 125 -312q0 -106 -50 -198t-132 -150q57 -31 106 -78t84 -104t54.5 -124t19.5 -136q0 -213 -150 -369q-149 -143 -354 -143 q-209 0 -358 143q-147 160 -148 369zM190 506q0 -154 109 -275q106 -118 262 -118q154 0 260 118q109 121 109 275q0 152 -108.5 260t-260.5 108q-154 0 -262.5 -108.5t-108.5 -259.5zM272 1296q0 -119 84 -202.5t205 -83.5q117 0 201 84q86 82 86 202q0 119 -86 215 q-84 97 -201 97q-121 0 -205 -96.5t-84 -215.5z" />
<glyph unicode="9" horiz-adv-x="1228" d="M43 1147q0 236 168 416q169 182 405 182t406 -182q168 -180 168 -416q0 -158 -80 -293q-2 -2 -3 -4l-1 -2l-2 -2q-135 -217 -282.5 -426t-301.5 -420h-176l397 565q-88 -20 -180 -12q-219 20 -368 197q-150 174 -150 397zM178 1147q0 -166 111 -301q113 -135 272 -156 q18 -2 31.5 -3t23.5 -1q104 0 192.5 56.5t147.5 131.5l33 48h2q61 100 62 225q0 180 -129 319q-127 141 -308 142q-180 0 -309 -142q-129 -139 -129 -319z" />
<glyph unicode=":" horiz-adv-x="243" d="M86 0v272h135v-272h-135zM86 1010v272h135v-272h-135z" />
<glyph unicode=";" horiz-adv-x="270" d="M86 -256v528h135v-528h-135zM86 1010v272h135v-272h-135z" />
<glyph unicode="&#x3c;" horiz-adv-x="829" d="M2 641l741 629v-178l-534 -451l534 -448v-179z" />
<glyph unicode="=" horiz-adv-x="798" d="M86 369v137h686v-137h-686zM86 778v137h686v-137h-686z" />
<glyph unicode="&#x3e;" horiz-adv-x="829" d="M86 14v179l528 448l-528 451v178l741 -629z" />
<glyph unicode="?" horiz-adv-x="913" d="M14 1282q0 176 127 322q129 141 310 141q180 0 309 -141.5t129 -321.5q0 -133 -58 -209q-29 -39 -60.5 -72.5t-65.5 -62.5q-33 -29 -64 -58.5t-61 -64.5q-57 -57 -60 -166v-295h-137v297q2 127 59 203q29 41 61 74t64 61q35 31 67 61.5t60 63.5q58 64 58 168 q0 123 -90 225q-88 100 -211 101q-125 0 -213 -100.5t-88 -225.5h-136zM383 0v203h137v-203h-137z" />
<glyph unicode="@" horiz-adv-x="1417" d="M68 639v438q0 266 188 454.5t453 188.5q264 0 452.5 -188.5t188.5 -452.5l2 -2l-2 -477v-16q10 -92 -52 -162q-59 -68 -151 -68q-119 0 -176 101q-100 -100 -248 -101q-145 0 -249.5 104.5t-104.5 252.5v82q0 145 104.5 249.5t249.5 104.5q147 0 251.5 -104.5 t104.5 -249.5v-39v-189v-6q0 -68 68 -67q66 0 67 63h-2q2 2 2 25v24v473q0 209 -149 357q-147 150 -356 149q-209 0 -359 -149q-147 -147 -147 -357v-436q0 -209 147 -358q150 -147 359 -148q197 0 348 139l98 -92q-188 -182 -446 -182q-266 0 -453 186q-188 188 -188 453z M506 711q0 -47 17.5 -87t46 -69t68.5 -46t85 -17t85 17t69.5 46t47 69t17.5 87v82q0 45 -17.5 85t-47 68.5t-69.5 46t-85 17.5q-47 0 -86 -16.5t-68.5 -46t-46 -69.5t-16.5 -85v-82z" />
<glyph unicode="A" horiz-adv-x="1499" d="M33 0l620 1720h185l626 -1720h-145l-209 573h-729l-209 -573h-139zM430 711h631l-316 866z" />
<glyph unicode="B" horiz-adv-x="1286" d="M86 0v1720h573q168 -6 289 -129q121 -127 121 -295q0 -195 -151 -323q70 -29 128 -76t99 -107.5t64.5 -132t23.5 -151.5q0 -209 -150 -359q-147 -147 -356 -147h-641zM221 135h465v4q23 -3 45 -3q133 0 242 93q123 111 123 277q0 152 -108.5 260t-260.5 108 q-10 0 -20.5 -1t-20.5 -3v4h-465v-739zM221 1010h422q119 0 203 84q86 82 86 202q0 119 -86 203q-84 84 -203 84h-422v-573z" />
<glyph unicode="C" horiz-adv-x="1222" d="M66 618v484q0 264 188 452.5t453 188.5q266 0 454 -189l-98 -96q-147 150 -356 150t-359 -150q-147 -147 -147 -356v-484q0 -209 147 -358q150 -147 359 -147t356 149l98 -96q-188 -172 -454 -172t-453 172q-188 188 -188 452z" />
<glyph unicode="D" horiz-adv-x="1298" d="M86 0v874v846h506q264 0 452.5 -188.5t188.5 -454.5v-436q0 -264 -188.5 -452.5t-452.5 -188.5h-506zM221 135h371q207 0 354 148q150 150 150 358v436h2h-2q0 209 -150 357q-146 149 -351 149h-3h-186h-185v-436v-1012z" />
<glyph unicode="E" horiz-adv-x="1107" d="M86 0v1720h1010v-137h-875v-547h602v-162h-602v-739h875v-135h-1010z" />
<glyph unicode="F" horiz-adv-x="1095" d="M86 0v1720h1010v-137h-875v-547h602v-162h-602v-874h-135z" />
<glyph unicode="G" horiz-adv-x="1398" d="M68 618v484q0 264 188 452.5t453 188.5q266 0 454 -189l-98 -96q-147 150 -356 150t-359 -150q-147 -147 -147 -356v-484q0 -209 147 -358q150 -147 359 -147t356 147q150 150 149 358v93h-509v163h645v-256q0 -264 -189 -452q-188 -172 -452 -172q-266 0 -453 172 q-188 188 -188 452z" />
<glyph unicode="H" horiz-adv-x="1320" d="M86 0v1720h135v-710h875v710h137v-1720h-137v874h-875v-874h-135z" />
<glyph unicode="I" horiz-adv-x="319" d="M86 0v1720h137v-1720h-137z" />
<glyph unicode="J" horiz-adv-x="1167" d="M2 166l90 96q149 -149 354 -149h3q207 0 358 147q150 150 149 358v1102h136v-1102q0 -264 -189 -452q-188 -172 -454 -172t-447 172z" />
<glyph unicode="K" horiz-adv-x="1257" d="M86 0v1720h135v-934l785 934h178l-713 -850l729 -870h-176l-641 764l-162 -191v-573h-135z" />
<glyph unicode="L" horiz-adv-x="1095" d="M86 0v1720h135v-1585h875v-135h-1010z" />
<glyph unicode="M" horiz-adv-x="1773" d="M86 0v1720h254l547 -1503l547 1503h254v-1720h-138v1642l-598 -1642h-131l-600 1642v-1642h-135z" />
<glyph unicode="N" horiz-adv-x="1454" d="M86 0v1720h223l924 -1597v1597h135v-1720h-223l-924 1597v-1597h-135z" />
<glyph unicode="O" horiz-adv-x="1419" d="M68 614v488q0 264 188 452.5t453 188.5q264 0 452.5 -188.5t188.5 -452.5h2v-488h-2q-4 -264 -191 -450q-188 -170 -450 -170q-264 0 -453 170q-188 188 -188 450zM203 618q0 -209 147 -358q150 -147 359 -147t356 147q150 150 149 358v484q0 209 -149 356 q-147 150 -356 150t-359 -150q-147 -147 -147 -356v-484z" />
<glyph unicode="P" horiz-adv-x="1247" d="M86 0v1720h573q236 0 406 -170q168 -168 168 -403q0 -238 -168 -406t-406 -168h-438v-573h-135zM221 711h438q180 0 308 127q129 129 129 309t-129 307q-127 129 -308 129h-438v-872z" />
<glyph unicode="Q" horiz-adv-x="1464" d="M68 618v484q0 264 188 452.5t453 188.5q264 0 452.5 -188.5t188.5 -452.5v-484q0 -233 -152 -415l203 -203h-193l-110 109q-170 -115 -389 -115q-266 0 -453 172q-188 188 -188 452zM203 618q0 -209 147 -358q150 -147 359 -147q162 0 292 94l-364 362h194l269 -270 q115 139 114 319v484q0 209 -149 356q-147 150 -356 150t-359 -150q-147 -147 -147 -356v-484z" />
<glyph unicode="R" horiz-adv-x="1300" d="M86 0v1720h573q236 0 406 -170q168 -168 168 -403q0 -178 -100 -322q-98 -145 -254 -209l356 -616h-158l-334 580q-59 -6 -84 -7h-438v-573h-135zM221 711h438q180 0 308 127q129 129 129 309t-129 307q-127 129 -308 129h-438v-872z" />
<glyph unicode="S" horiz-adv-x="968" d="M53 1321q0 172 125 297t299 125q188 0 314 -137l-97 -99q-86 100 -217 101q-121 0 -203 -86q-84 -84 -84 -201q0 -168 115 -234q53 -29 117.5 -59.5t136.5 -58.5q133 -53 252 -152q117 -96 117 -336q0 -209 -150 -356q-150 -131 -354 -131q-209 0 -358 131l98 96 q108 -108 257 -108h3q152 0 260.5 108.5t108.5 259.5q0 197 -117 271q-115 74 -254 127q-133 53 -254 139q-115 86 -115 303z" />
<glyph unicode="T" horiz-adv-x="1179" d="M16 1583v137h1147v-137h-506v-1583h-135v1583h-506z" />
<glyph unicode="U" horiz-adv-x="1437" d="M76 614v1106h135v-1102q0 -209 147 -358q150 -147 359 -147t356 147q150 150 150 358v1102h137v-1106h-2q-4 -264 -191 -450q-188 -170 -450 -170q-264 0 -453 170q-188 188 -188 450z" />
<glyph unicode="V" horiz-adv-x="1517" d="M33 1720h139l584 -1603l583 1603h146l-627 -1720h-205z" />
<glyph unicode="W" horiz-adv-x="2129" d="M55 1720h138l436 -1634l336 1634h194l336 -1634l438 1634h142l-461 -1720h-242l-309 1489l-309 -1489h-242z" />
<glyph unicode="X" horiz-adv-x="1286" d="M68 0h157l418 725l416 -725h160l-498 860l498 860h-158l-418 -725l-418 725h-157l495 -860z" />
<glyph unicode="Y" horiz-adv-x="1355" d="M25 1720h153l498 -864l498 864h157l-588 -1018v-702h-135v702z" />
<glyph unicode="Z" horiz-adv-x="1218" d="M35 0h1100v135h-867l916 1585h-2h-1100v-137h864z" />
<glyph unicode="[" horiz-adv-x="507" d="M86 -420v2140h410v-137h-275v-1866h275v-137h-410z" />
<glyph unicode="\" horiz-adv-x="1157" d="M4 1720h154l993 -1720h-158z" />
<glyph unicode="]" horiz-adv-x="512" d="M12 -283h273v1866h-273v137h410v-2140h-410v137z" />
<glyph unicode="^" horiz-adv-x="649" d="M35 1487l289 291l288 -291l-96 -96l-192 192l-195 -192z" />
<glyph unicode="_" horiz-adv-x="1320" d="M86 0h1147v-119h-1147v119z" />
<glyph unicode="`" horiz-adv-x="532" d="M12 1720h219l275 -438h-137z" />
<glyph unicode="a" horiz-adv-x="1398" d="M66 551v182q0 236 167 404q170 170 406 170q238 0 405.5 -168t167.5 -406v-487q0 -111 109 -111h27v-135h-29q-92 0 -157.5 56.5t-80.5 142.5q-80 -100 -195.5 -152.5t-246.5 -52.5q-236 0 -406 151q-168 168 -167 406zM201 551q0 -182 129 -311q133 -127 309 -127 q180 0 307 129q129 129 129 309v182q0 180 -129 307q-127 129 -307 129t-309 -129q-129 -127 -129 -307v-182z" />
<glyph unicode="b" horiz-adv-x="1251" d="M78 551v1169h135v-630q80 98 193.5 157.5t244.5 59.5q238 0 406 -168t168 -406v-182q0 -236 -170 -406q-169 -151 -401 -151h-3q-236 0 -405 151q-168 168 -168 406zM213 551q0 -182 129 -311q133 -127 309 -127q180 0 307 129q129 129 129 309v182q0 180 -129 307 q-127 129 -307 129t-309 -129q-129 -127 -129 -307v-182z" />
<glyph unicode="c" horiz-adv-x="1110" d="M59 551v182q0 236 168 404q170 170 406 170q244 0 416 -181l-97 -96q-129 139 -319 139q-180 0 -309 -129q-129 -127 -129 -307v-182q0 -182 129 -311q133 -127 309 -127q186 0 319 141l97 -96q-170 -164 -416 -164q-236 0 -406 151q-168 168 -168 406z" />
<glyph unicode="d" horiz-adv-x="1249" d="M25 551v182q0 238 167.5 406t405.5 168q131 0 244.5 -59.5t191.5 -157.5v630h137v-1169q0 -238 -167 -406q-169 -151 -403 -151h-3q-236 0 -405 151q-168 168 -168 406zM160 551q0 -180 129 -309t309 -129t307 127q129 129 129 311v182q0 180 -129 307q-127 129 -307 129 t-309 -129q-129 -127 -129 -307v-182z" />
<glyph unicode="e" horiz-adv-x="1259" d="M63 551v182q0 236 168 404q170 170 406 170t403 -168q170 -166 170 -406v-160h-1011v-22q0 -182 129 -311q133 -127 309 -127q186 0 319 141l97 -96q-170 -164 -416 -164q-236 0 -406 151q-168 168 -168 406zM199 711h874v22q0 180 -129 307q-127 129 -307 129t-309 -129 q-129 -127 -129 -307v-22z" />
<glyph unicode="f" horiz-adv-x="651" d="M20 1147v135h205v174q0 119 84 203q82 86 203 86q119 0 203 -86l-97 -96q-43 45 -106 45t-106.5 -44t-43.5 -108v-174h205v-135h-205v-1147h-137v1147h-205z" />
<glyph unicode="g" horiz-adv-x="1271" d="M55 551v182q0 236 168 404q170 170 406 170q238 0 405.5 -168t167.5 -406v-182v-416q0 -217 -168 -385q-170 -170 -405 -170q-248 0 -416 180l96 97q129 -139 320 -140q180 0 307 129q129 125 129 289v45q-78 -94 -191.5 -140t-244.5 -46q-236 0 -406 151 q-168 168 -168 406zM190 551q0 -182 129 -311q133 -127 310 -127q180 0 307 129q129 129 129 309v182q0 180 -129 307q-127 129 -307 129t-310 -129q-129 -127 -129 -307v-182z" />
<glyph unicode="h" horiz-adv-x="1265" d="M86 0v711v1009h137v-630q78 98 191.5 157.5t244.5 59.5q238 0 406 -168t168 -406v-733h-137v733q0 180 -129 307q-127 129 -308 129q-180 0 -309 -129q-127 -127 -127 -307v-733h-137z" />
<glyph unicode="i" horiz-adv-x="382" d="M123 0v1282h137v-1282h-137zM123 1493v227h137v-227h-137z" />
<glyph unicode="j" horiz-adv-x="452" d="M-150 -334l99 94q43 -43 94 -43q57 0 101 44t44 106v1415h136v-1415q0 -117 -84 -201q-84 -86 -197 -86q-106 0 -193 86zM188 1493v227h136v-227h-136z" />
<glyph unicode="k" horiz-adv-x="1214" d="M86 0v1720h135v-1222l787 784h194l-641 -639l645 -643h-194l-547 547l-244 -244v-303h-135z" />
<glyph unicode="l" horiz-adv-x="366" d="M82 246v1474h135v-1474q0 -111 111 -111h24v-135h-26q-102 0 -174 72q-70 70 -70 174z" />
<glyph unicode="m" horiz-adv-x="1775" d="M82 0v866q0 176 127 310q125 131 309 131q117 0 213 -55.5t156 -147.5q57 92 154.5 147.5t213.5 55.5q180 0 310 -131q127 -127 127 -304v-6v-866h-138v874q-4 123 -90 207q-86 88 -209 88t-211 -88q-86 -84 -90 -207v-874h-135v866q0 125 -88 213q-90 90 -213 90 q-125 0 -215 -90q-86 -86 -86 -203v-10v-866h-135z" />
<glyph unicode="n" horiz-adv-x="1296" d="M74 0v733q0 236 168 404q170 170 405 170q238 0 406 -168t168 -406v-733h-138v733q0 180 -129 307q-127 129 -307 129t-309 -129q-127 -127 -127 -307v-733h-137z" />
<glyph unicode="o" horiz-adv-x="1273" d="M63 551v182q0 236 168 404q170 170 406 170q238 0 405.5 -168t167.5 -406v-182q0 -236 -170 -406q-169 -151 -400 -151h-3q-236 0 -406 151q-168 168 -168 406zM199 551q0 -182 129 -311q133 -127 309 -127q180 0 307 129q129 129 129 309v182q0 180 -129 307 q-127 129 -307 129t-309 -129q-129 -127 -129 -307v-182z" />
<glyph unicode="p" horiz-adv-x="1255" d="M78 -397v1108h4v22q0 236 168 404q170 170 405 170q236 0 404 -168q170 -170 170 -406v-182q0 -236 -170 -406q-169 -151 -401 -151h-3q-135 0 -248.5 52t-193.5 153v-596h-135zM219 551q0 -178 127 -311q133 -127 309 -127q180 0 309.5 129t129.5 309v182 q0 180 -129 307q-129 129 -310 129q-180 0 -309 -129q-127 -127 -127 -307v-182z" />
<glyph unicode="q" horiz-adv-x="1251" d="M27 551v182q0 236 168 404q170 170 405 170q238 0 406 -168t168 -406v-160v-970h-138v590q-78 -98 -191.5 -148.5t-244.5 -50.5q-236 0 -405 151q-168 168 -168 406zM162 551q0 -182 129 -311q133 -127 309 -127q180 0 307 129q129 129 129 309v182q0 180 -129 307 q-127 129 -307 129t-309 -129q-129 -127 -129 -307v-182z" />
<glyph unicode="r" horiz-adv-x="1062" d="M72 0v733q0 236 168 404q170 170 405 170q244 0 416 -181l-96 -96q-129 139 -320 139q-180 0 -309 -129q-129 -127 -129 -307v-733h-135z" />
<glyph unicode="s" horiz-adv-x="804" d="M43 145q96 -129 248 -145q17 -1 34 -1q138 0 253 58q129 90 157 250q9 53 9 98q0 114 -56 179q-76 88 -180 145q-102 55 -184 111q-67 47 -67 139q0 20 3 43q12 76 74 119q48 33 104 33q17 0 35 -3q78 -14 125 -79l111 77q-76 109 -213 138q-28 4 -55 4q-101 1 -185 -59 q-106 -76 -127 -208q-8 -47 -8 -86q0 -107 57 -163q39 -39 84 -71t96 -60q51 -27 97.5 -56.5t87.5 -62.5q63 -48 63 -148q0 -30 -6 -65q-16 -102 -102 -162q-64 -45 -140 -45q-23 0 -47 4q-100 16 -157 96z" />
<glyph unicode="t" horiz-adv-x="581" d="M12 1147v135h201v301h135v-301h205v-135h-205v-901q0 -111 109 -111h71v-135h-73q-100 0 -172 72q-70 70 -70 174v901h-201z" />
<glyph unicode="u" horiz-adv-x="1296" d="M74 551v731h137v-731q0 -178 127 -311q133 -127 309 -127q180 0 307 129q129 129 129 309v731h138v-731q0 -236 -170 -406q-169 -151 -401 -151h-3q-236 0 -405 151q-168 168 -168 406z" />
<glyph unicode="v" horiz-adv-x="1128" d="M33 1282h141l387 -1065l389 1065h146l-469 -1282h-131z" />
<glyph unicode="w" horiz-adv-x="1972" d="M53 1282h140l389 -1065l317 1065h170l317 -1065l388 1065h145l-467 -1282h-131l-338 1118l-336 -1118h-131z" />
<glyph unicode="x" horiz-adv-x="1267" d="M66 0l477 666l-459 616h178l371 -498l368 498h179l-459 -616l481 -666h-178l-391 547l-393 -547h-174z" />
<glyph unicode="y" horiz-adv-x="1290" d="M66 551v731h135v-731q0 -182 129 -311q133 -127 309 -127q180 0 307 129q129 129 129 309v731h137v-731v-416q0 -215 -170 -385t-403 -170q-246 0 -418 180l96 97q133 -139 322 -140q180 0 307 129q129 125 129 289v45q-80 -94 -192.5 -140t-243.5 -46q-236 0 -406 151 q-168 168 -167 406z" />
<glyph unicode="z" horiz-adv-x="1120" d="M55 0v145l840 1002h-840v135h422h533h55v-145l-840 -1002h840v-135h-954h-56z" />
<glyph unicode="{" horiz-adv-x="489" d="M12 565v154l8 6q127 109 127 276v216q0 147 76 264.5t199 181.5v-162q-137 -113 -137 -287v-213q0 -209 -152 -360q152 -152 152 -358v-211l-4 -4h4q0 -156 137 -267v-163q-61 31 -111.5 77.5t-86.5 104t-56.5 121t-20.5 127.5h7l-7 4v209q0 168 -127 278z" />
<glyph unicode="|" horiz-adv-x="319" d="M86 -420v2140h137v-2140h-137z" />
<glyph unicode="}" horiz-adv-x="485" d="M63 -199q135 106 136 267h4l-4 4v211q2 211 153 358q-150 147 -153 360v213q0 172 -136 287v162q123 -63 198 -181t75 -265v-216q0 -170 129 -276l8 -6v-154l-8 -6q-129 -110 -129 -278v-209l-4 -4h4q0 -141 -75 -254t-198 -176v163z" />
<glyph unicode="~" horiz-adv-x="962" d="M45 1370l117 -37q12 41 47 76q49 41 112.5 35t102.5 -58q76 -88 194 -98q117 -10 207 68q64 51 93 141l-132 37q-16 -47 -49 -74q-49 -41 -110.5 -35.5t-100.5 56.5q-78 88 -196 98q-133 8 -207 -66q-59 -66 -78 -143z" />
<glyph unicode="&#xa9;" horiz-adv-x="1701" d="M59 928q0 328 232 559q233 233 561 233q326 0 557 -233q233 -231 233 -559t-233 -561q-231 -232 -557 -232q-324 0 -561 232q-231 238 -232 561zM195 928q0 -270 192.5 -463t464.5 -193q270 0 462.5 192.5t192.5 463.5q0 270 -192.5 462.5t-462.5 192.5 q-272 0 -464.5 -192.5t-192.5 -462.5zM358 928q0 203 146 348q143 143 346 143q205 0 348 -143l-98 -98q-102 102 -250 102q-145 0 -248 -102q-104 -104 -104 -250q0 -147 104 -248q100 -104 248 -105q147 0 250 105l98 -98q-145 -145 -348 -146q-201 0 -346.5 145.5 t-145.5 346.5z" />
<glyph unicode="&#xad;" d="M86 573v138h686v-138h-686z" />
<glyph unicode="&#xae;" horiz-adv-x="1701" d="M59 928q0 328 232 559q233 233 561 233q326 0 557 -233q233 -231 233 -559t-233 -561q-231 -232 -557 -232q-324 0 -561 232q-231 238 -232 561zM195 928q0 -270 192.5 -463t464.5 -193q270 0 462.5 192.5t192.5 463.5q0 270 -192.5 462.5t-462.5 192.5 q-272 0 -464.5 -192.5t-192.5 -462.5zM496 465v954h137h346q113 0 192 -80q82 -80 82 -192q0 -104 -64.5 -178t-162.5 -90l240 -418h-158l-238 413h-237v-409h-137zM633 1010h346q57 0 97 40t40 97q0 55 -40 95t-97 40h-346v-272z" />
<glyph unicode="&#xc0;" horiz-adv-x="1488" d="M33 0l620 1720h185l626 -1720h-145l-209 573h-729l-209 -573h-139zM430 711h631l-316 866zM463 2241h178l248 -412h-109z" />
<glyph unicode="&#xc1;" horiz-adv-x="1486" d="M25 0l620 1720h184l627 -1720h-145l-209 573h-729l-209 -573h-139zM422 711h631l-316 866zM569 1829l248 412h180l-317 -412h-111z" />
<glyph unicode="&#xc2;" horiz-adv-x="1501" d="M35 0l620 1720h185l626 -1720h-145l-209 573h-729l-209 -573h-139zM422 1810l237 414h179l237 -414h-110l-217 314l-218 -314h-108zM432 711h631l-315 866z" />
<glyph unicode="&#xc3;" horiz-adv-x="1484" d="M27 0l620 1720h184l627 -1720h-145l-209 573h-729l-209 -573h-139zM397 1878q25 109 86 164q57 55 146 55q31 0 33 -2q8 -2 14 -4t14 -4l115 -37q14 -4 33.5 -8t31.5 -4q39 0 66 20q29 23 47 68h96q-31 -111 -86 -164q-59 -53 -137 -53h-18q-12 0 -28.5 3t-31.5 9 l-114 37q-10 2 -17.5 3t-15.5 3q-2 2 -19 2h-10q-37 0 -65 -22q-25 -20 -45 -66h-95zM424 711h631l-316 866z" />
<glyph unicode="&#xc4;" horiz-adv-x="1480" d="M25 0l620 1720h184l627 -1720h-145l-209 573h-729l-209 -573h-139zM422 711h631l-316 866zM438 1907v192h166v-192h-166zM872 1907v192h166v-192h-166z" />
<glyph unicode="&#xc5;" horiz-adv-x="1501" d="M35 0l620 1720h185l626 -1720h-145l-209 573h-729l-209 -573h-139zM432 711h631l-315 866zM530 2036q0 45 16.5 85t46.5 69.5t69 46t86 16.5q45 0 84.5 -17.5t69.5 -46t47.5 -68.5t17.5 -85q0 -47 -17.5 -87t-47.5 -69t-69.5 -46t-84.5 -17t-85 17t-69 46t-46.5 69 t-17.5 87zM621 2036q0 -55 36.5 -92t90.5 -37q53 0 89.5 36.5t36.5 92.5q0 51 -36.5 89t-89.5 38t-90 -38t-37 -89z" />
<glyph unicode="&#xc6;" horiz-adv-x="2168" d="M31 0l987 1720h1110v-137h-873v-547h600v-162h-600v-739h873v-135h-1010v573h-604l-330 -573h-153zM592 711h526v909z" />
<glyph unicode="&#xc7;" horiz-adv-x="1177" d="M43 618v484q0 264 188.5 452.5t452.5 188.5q266 0 455 -189l-99 -96q-147 150 -356 150t-358 -150q-147 -147 -148 -356v-484q0 -209 148 -358q150 -147 358 -147q209 0 356 149l99 -96q-188 -172 -455 -172h-2v-66h23q123 0 186 -51q63 -49 63 -145t-67 -148 q-63 -51 -191 -51q-35 0 -67.5 3t-65.5 7q-37 4 -74.5 13.5t-78.5 19.5v88q119 -23 165 -31q18 -8 105 -8q72 0 108 25q37 27 37 78q0 63 -39 90q-41 29 -122 28h-78q-20 0 -23 -2v156q-221 33 -370.5 207t-149.5 411z" />
<glyph unicode="&#xc8;" horiz-adv-x="1079" d="M61 0v1720h1010v-137h-874v-547h602v-162h-602v-739h874v-135h-1010zM354 2241h178l248 -412h-108z" />
<glyph unicode="&#xc9;" horiz-adv-x="1077" d="M55 0v1720h1010v-137h-875v-547h603v-162h-603v-739h875v-135h-1010zM463 1829l248 412h180l-320 -412h-108z" />
<glyph unicode="&#xca;" horiz-adv-x="1091" d="M70 0v1720h1009v-137h-874v-547h602v-162h-602v-739h874v-135h-1009zM248 1810l237 414h181l235 -414h-108l-218 314l-217 -314h-110z" />
<glyph unicode="&#xcb;" horiz-adv-x="1085" d="M68 0v1720h1009v-137h-874v-547h602v-162h-602v-739h874v-135h-1009zM279 1878q25 104 83 164q57 55 146 55q33 0 35 -2q8 -2 14 -4t14 -4l113 -37q16 -4 31.5 -8t34.5 -4q41 0 67.5 20.5t46.5 67.5h97q-31 -109 -87 -164q-59 -53 -139 -53h-16q-10 0 -28.5 3t-33.5 9 l-114 37q-14 4 -23.5 6t-25.5 2h-13q-35 0 -63 -22q-27 -20 -47 -66h-92z" />
<glyph unicode="&#xcc;" horiz-adv-x="456" d="M12 2241h174l248 -412h-108zM174 0v1720h137v-1720h-137z" />
<glyph unicode="&#xcd;" horiz-adv-x="487" d="M55 1829l248 412h180l-319 -412h-109zM90 0v1720h137v-1720h-137z" />
<glyph unicode="&#xce;" horiz-adv-x="690" d="M20 1810l234 414h178l238 -414h-111l-215 314l-213 -314h-111zM274 0v1720h138v-1720h-138z" />
<glyph unicode="&#xcf;" horiz-adv-x="530" d="M14 1907v192h160v-192h-160zM195 0v1720h137v-1720h-137zM350 1907v192h166v-192h-166z" />
<glyph unicode="&#xd0;" horiz-adv-x="1474" d="M47 793v135h213v792h506q264 0 452.5 -188.5t188.5 -454.5v-436q0 -264 -188.5 -452.5t-452.5 -188.5h-506v793h-213zM395 135h371q207 0 354 148q150 150 150 358v436h2h-2q0 209 -150 357q-147 150 -354 149h-186h-185v-436v-219h465v-135h-465v-658z" />
<glyph unicode="&#xd1;" horiz-adv-x="1415" d="M66 0v1720h223l923 -1597v1597h136v-1720h-224l-923 1597v-1597h-135zM389 1878q25 109 84 164q57 55 148 55q31 0 32 -2q8 -2 14.5 -4t14.5 -4l113 -37l16 -4t18 -4q8 -2 15.5 -3t17.5 -1q39 0 65.5 20.5t47.5 67.5h96q-29 -109 -86 -164q-59 -53 -139 -53h-17 q-12 0 -28.5 3t-30.5 9l-115 37q-8 2 -15 3t-17 3q-2 2 -19 2h-12q-35 0 -64 -22q-25 -20 -45 -66h-94z" />
<glyph unicode="&#xd2;" horiz-adv-x="1380" d="M51 614v488q0 264 188.5 452.5t452.5 188.5t452.5 -188.5t188.5 -452.5h2v-488h-2q-4 -264 -190 -450q-188 -170 -451 -170q-264 0 -452 170q-188 188 -189 450zM186 618q0 -209 148 -358q150 -147 358 -147q209 0 357 147q150 150 149 358v484q0 209 -149 356 q-147 150 -357 150q-209 0 -358 -150q-148 -147 -148 -356v-484zM410 2241h178l248 -412h-109z" />
<glyph unicode="&#xd3;" horiz-adv-x="1380" d="M45 614v488q0 264 188.5 452.5t452.5 188.5t452.5 -188.5t188.5 -452.5h2v-488h-2q-4 -264 -190 -450q-188 -170 -451 -170q-264 0 -453 170q-188 188 -188 450zM180 618q0 -209 148 -358q150 -147 358 -147q209 0 356 147q150 150 150 358v484q0 209 -150 356 q-147 150 -356 150t-358 -150q-148 -147 -148 -356v-484zM565 1829l248 412h178l-317 -412h-109z" />
<glyph unicode="&#xd4;" horiz-adv-x="1390" d="M53 614v488q0 264 188.5 452.5t452.5 188.5t452.5 -188.5t188.5 -452.5h2v-488h-2q-4 -264 -190 -450q-188 -170 -451 -170q-264 0 -452 170q-188 188 -189 450zM188 618q0 -209 148 -358q150 -147 358 -147q209 0 357 147q150 150 149 358v484q0 209 -149 356 q-147 150 -357 150q-209 0 -358 -150q-148 -147 -148 -356v-484zM369 1810l237 414h178l238 -414h-111l-217 314l-217 -314h-108z" />
<glyph unicode="&#xd5;" horiz-adv-x="1390" d="M53 614v488q0 264 188.5 452.5t452.5 188.5t452.5 -188.5t188.5 -452.5h2v-488h-2q-4 -264 -190 -450q-188 -170 -451 -170q-264 0 -452 170q-188 188 -189 450zM188 618q0 -209 148 -358q150 -147 358 -147q209 0 357 147q150 150 149 358v484q0 209 -149 356 q-147 150 -357 150q-209 0 -358 -150q-148 -147 -148 -356v-484zM352 1878q29 106 86 164q57 55 146 55q20 0 28.5 -1t12.5 -2t7 -3t15 -4l113 -37q16 -4 31.5 -8t33.5 -4q41 0 68 20.5t47 67.5h96q-33 -109 -88 -164q-59 -53 -137 -53h-16q-16 0 -19 2q-10 2 -20.5 4 t-20.5 6l-117 37q-14 4 -23 6t-26 2h-12q-74 0 -111 -88h-94z" />
<glyph unicode="&#xd6;" horiz-adv-x="1388" d="M51 614v488q0 264 188.5 452.5t452.5 188.5t452.5 -188.5t188.5 -452.5h2v-488h-2q-4 -264 -190 -450q-188 -170 -451 -170q-264 0 -452 170q-188 188 -189 450zM186 618q0 -209 148 -358q150 -147 358 -147q209 0 357 147q150 150 149 358v484q0 209 -149 356 q-147 150 -357 150q-209 0 -358 -150q-148 -147 -148 -356v-484zM393 1907v192h166v-192h-166zM827 1907v192h166v-192h-166z" />
<glyph unicode="&#xd8;" horiz-adv-x="1468" d="M68 0l155 229q-133 170 -133 385v488q0 264 188.5 452.5t452.5 188.5q231 0 414 -152l90 129h166l-160 -229q131 -168 131 -389h2v-488h-2q-4 -264 -190 -450q-189 -170 -451 -170q-238 0 -412 135l-90 -129h-161zM225 618q0 -147 80 -272l762 1135q-145 127 -336 127 q-209 0 -358 -150q-147 -147 -148 -356v-484zM397 240q145 -127 334 -127q209 0 356 147q150 150 150 358v484q0 143 -80 270z" />
<glyph unicode="&#xd9;" horiz-adv-x="1392" d="M57 614v1106h136v-1102q0 -209 147 -358q150 -147 358 -147q209 0 357 147q150 150 149 358v1102h137v-1106h-2q-4 -264 -190 -450q-188 -170 -451 -170q-264 0 -452 170q-188 188 -189 450zM416 2241h178l248 -412h-109z" />
<glyph unicode="&#xda;" horiz-adv-x="1392" d="M51 614v1106h135v-1102q0 -209 148 -358q150 -147 358 -147q209 0 357 147q150 150 149 358v1102h137v-1106h-2q-4 -264 -190 -450q-188 -170 -451 -170q-264 0 -452 170q-188 188 -189 450zM549 1829l246 412h180l-318 -412h-108z" />
<glyph unicode="&#xdb;" horiz-adv-x="1402" d="M59 614v1106h136v-1102q0 -209 147 -358q150 -147 358 -147q209 0 357 147q150 150 149 358v1102h137v-1106h-2q-4 -264 -190 -450q-188 -170 -451 -170q-264 0 -452 170q-188 188 -189 450zM375 1810l237 414h179l237 -414h-110l-218 314l-217 -314h-108z" />
<glyph unicode="&#xdc;" horiz-adv-x="1402" d="M59 614v1106h136v-1102q0 -209 147 -358q150 -147 358 -147q209 0 357 147q150 150 149 358v1102h137v-1106h-2q-4 -264 -190 -450q-188 -170 -451 -170q-264 0 -452 170q-188 188 -189 450zM401 1907v192h166v-192h-166zM836 1907v192h165v-192h-165z" />
<glyph unicode="&#xdd;" horiz-adv-x="1333" d="M10 1720h154l498 -864l497 864h158l-588 -1018v-702h-135v702zM586 1829l245 412h181l-318 -412h-108z" />
<glyph unicode="&#xdf;" horiz-adv-x="1140" d="M82 0v1307q0 174 119 305q121 129 297 131h20q168 -6 289 -129q121 -127 121 -293q0 -197 -152 -326q70 -29 128.5 -76t99 -107t64.5 -132t24 -152q0 -213 -150 -368q-147 -160 -354 -160h-115h-119v135h193v4q162 -18 284 103q125 119 125 286q0 164 -125 275 q-123 111 -284 92v2h-55v135h12q119 0 203 84q86 82 86 205q0 119 -86 203q-84 84 -203 84h-4q-121 -4 -205 -95q-82 -88 -76 -206h-2v-1307h-135z" />
<glyph unicode="&#xe0;" horiz-adv-x="1359" d="M49 551v182q0 236 168 404q170 170 406 170q238 0 405.5 -168t167.5 -406v-487q0 -111 109 -111h26v-135h-28q-92 0 -158 56.5t-80 142.5q-80 -100 -195.5 -152.5t-246.5 -52.5q-236 0 -406 151q-168 168 -168 406zM184 551q0 -182 129 -311q133 -127 310 -127 q180 0 307 129q129 129 129 309v182q0 180 -129 307q-127 129 -307 129t-310 -129q-129 -127 -129 -307v-182zM340 1845h178l248 -411h-109z" />
<glyph unicode="&#xe1;" horiz-adv-x="1359" d="M41 551v182q0 236 168 404q170 170 405 170q238 0 406 -168t168 -406v-487q0 -111 108 -111h27v-135h-29q-92 0 -157.5 56.5t-79.5 142.5q-80 -100 -196 -152.5t-247 -52.5q-236 0 -405 151q-168 168 -168 406zM176 551q0 -182 129 -311q133 -127 309 -127q180 0 308 129 q129 129 129 309v182q0 180 -129 307q-127 129 -308 129q-180 0 -309 -129q-129 -127 -129 -307v-182zM469 1434l248 411h180l-317 -411h-111z" />
<glyph unicode="&#xe2;" horiz-adv-x="1368" d="M49 551v182q0 236 168 404q170 170 406 170q238 0 405.5 -168t167.5 -406v-487q0 -111 109 -111h26v-135h-28q-92 0 -158 56.5t-80 142.5q-80 -100 -195.5 -152.5t-246.5 -52.5q-236 0 -406 151q-168 168 -168 406zM184 551q0 -182 129 -311q133 -127 310 -127 q180 0 307 129q129 129 129 309v182q0 180 -129 307q-127 129 -307 129t-310 -129q-129 -127 -129 -307v-182zM319 1415l238 416h178l238 -416h-111l-215 314l-219 -314h-109z" />
<glyph unicode="&#xe3;" horiz-adv-x="1372" d="M51 551v182q0 236 168 404q170 170 406 170q238 0 405.5 -168t167.5 -406v-487q0 -111 109 -111h26v-135h-28q-92 0 -158 56.5t-80 142.5q-80 -100 -195.5 -152.5t-246.5 -52.5q-236 0 -406 151q-168 168 -168 406zM186 551q0 -182 129 -311q133 -127 310 -127 q180 0 307 129q129 129 129 309v182q0 180 -129 307q-127 129 -307 129t-310 -129q-129 -127 -129 -307v-182zM307 1485q25 102 84 162q57 57 146 57q18 0 34.5 -4t28.5 -8l113 -35l21 -6t11 -4q12 -2 20.5 -3.5t12.5 -1.5q39 0 68 23q27 20 47 66h96q-31 -109 -86 -162 q-59 -55 -139 -56h-16q-10 0 -29 3.5t-33 9.5l-115 37q-8 2 -16 3t-14 3q-10 2 -18.5 3t-12.5 1q-37 0 -64 -25q-25 -18 -45 -63h-94z" />
<glyph unicode="&#xe4;" horiz-adv-x="1368" d="M49 551v182q0 236 168 404q170 170 406 170q238 0 405.5 -168t167.5 -406v-487q0 -111 109 -111h26v-135h-28q-92 0 -158 56.5t-80 142.5q-80 -100 -195.5 -152.5t-246.5 -52.5q-236 0 -406 151q-168 168 -168 406zM184 551q0 -182 129 -311q133 -127 310 -127 q180 0 307 129q129 129 129 309v182q0 180 -129 307q-127 129 -307 129t-310 -129q-129 -127 -129 -307v-182zM346 1511v193h166v-193h-166zM780 1511v193h166v-193h-166z" />
<glyph unicode="&#xe5;" horiz-adv-x="1368" d="M49 551v182q0 236 168 404q170 170 406 170q238 0 405.5 -168t167.5 -406v-487q0 -111 109 -111h26v-135h-28q-92 0 -158 56.5t-80 142.5q-80 -100 -195.5 -152.5t-246.5 -52.5q-236 0 -406 151q-168 168 -168 406zM184 551q0 -182 129 -311q133 -127 310 -127 q180 0 307 129q129 129 129 309v182q0 180 -129 307q-127 129 -307 129t-310 -129q-129 -127 -129 -307v-182zM428 1640q0 45 17.5 85t46 69t68.5 46.5t87 17.5q88 0 152 -64q66 -66 65 -154q0 -47 -17.5 -87t-47 -68.5t-69.5 -46t-83 -17.5q-47 0 -87 17.5t-68.5 46 t-46 68.5t-17.5 87zM518 1640q0 -55 37 -92t92 -37q51 0 89 37t38 92q0 51 -38 89t-89 38q-55 0 -92 -37.5t-37 -89.5z" />
<glyph unicode="&#xe6;" horiz-adv-x="2295" d="M74 551v182q0 236 168 404q170 170 405 170q131 0 245 -66.5t191 -161.5v203h138v-178q78 92 191.5 147.5t244.5 55.5q236 0 403 -168q170 -166 170 -406v-160h-1009v-22q0 -178 127 -311q133 -127 309 -127q188 0 321 141l97 -96q-176 -164 -418 -164q-268 0 -436 186 v-180h-138v203q-78 -94 -192.5 -151.5t-243.5 -57.5q-236 0 -405 151q-168 168 -168 406zM209 551q0 -182 129 -311q133 -127 309 -127q180 0 307 129q129 129 129 309v182q0 180 -129 307q-127 129 -307 129t-309 -129q-129 -127 -129 -307v-182zM1221 711h872v22 q0 180 -129 307q-127 129 -307 129q-178 0 -307 -129q-129 -127 -129 -307v-22z" />
<glyph unicode="&#xe7;" horiz-adv-x="1079" d="M39 551v182q0 236 168 404q170 170 405 170q244 0 416 -181l-96 -96q-129 139 -320 139q-180 0 -309 -129q-129 -127 -129 -307v-182q0 -182 129 -311q133 -127 309 -127q186 0 320 141l96 -96q-170 -164 -416 -164h-2v-66h23q121 0 184 -51q66 -49 66 -145t-68 -148 q-63 -51 -190 -51q-35 0 -68 3t-65 7q-37 4 -75 13.5t-79 19.5v88q119 -23 166 -31q18 -8 104 -8q72 0 109 25q37 27 37 78q0 63 -39 90q-41 29 -123 28h-80q-18 0 -20 -2v156q-197 35 -324 186q-129 156 -129 365z" />
<glyph unicode="&#xe8;" horiz-adv-x="1218" d="M45 551v182q0 236 168 404q170 170 405 170q236 0 404 -168q170 -166 170 -406v-160h-1012v-22q0 -182 129 -311q133 -127 309 -127q186 0 320 141l96 -96q-170 -164 -416 -164q-236 0 -405 151q-168 168 -168 406zM180 711h875v22q0 180 -129 307q-127 129 -308 129 q-180 0 -309 -129q-129 -127 -129 -307v-22zM336 1845h178l248 -411h-109z" />
<glyph unicode="&#xe9;" horiz-adv-x="1218" d="M37 551v182q0 236 168 404q170 170 405 170q236 0 404 -168q170 -166 170 -406v-160h-1012v-22q0 -182 129 -311q133 -127 309 -127q186 0 320 141l96 -96q-170 -164 -416 -164q-236 0 -405 151q-168 168 -168 406zM172 711h875v22q0 180 -129 307q-127 129 -308 129 q-180 0 -309 -129q-129 -127 -129 -307v-22zM465 1434l248 411h180l-318 -411h-110z" />
<glyph unicode="&#xea;" horiz-adv-x="1228" d="M45 551v182q0 236 168 404q170 170 405 170q236 0 404 -168q170 -166 170 -406v-160h-1012v-22q0 -182 129 -311q133 -127 309 -127q186 0 320 141l96 -96q-170 -164 -416 -164q-236 0 -405 151q-168 168 -168 406zM180 711h875v22q0 180 -129 307q-127 129 -308 129 q-180 0 -309 -129q-129 -127 -129 -307v-22zM315 1415l238 416h178l238 -416h-111l-215 314l-219 -314h-109z" />
<glyph unicode="&#xeb;" horiz-adv-x="1230" d="M47 551v182q0 236 168 404q170 170 406 170t403 -168q170 -166 170 -406v-160h-1012v-22q0 -182 129 -311q133 -127 310 -127q186 0 319 141l96 -96q-170 -164 -415 -164q-236 0 -406 151q-168 168 -168 406zM182 711h875v22q0 180 -129 307q-127 129 -307 129t-310 -129 q-129 -127 -129 -307v-22zM344 1511v193h166v-193h-166zM778 1511v193h166v-193h-166z" />
<glyph unicode="&#xec;" horiz-adv-x="460" d="M10 1845h176l246 -411h-108zM201 0v1282h137v-1282h-137z" />
<glyph unicode="&#xed;" horiz-adv-x="475" d="M47 1434l242 411h180l-317 -411h-105zM90 0v1282h137v-1282h-137z" />
<glyph unicode="&#xee;" horiz-adv-x="686" d="M18 1415l232 416h180l236 -416h-109l-217 314l-213 -314h-109zM270 0v1282h138v-1282h-138z" />
<glyph unicode="&#xef;" horiz-adv-x="538" d="M18 1511v193h160v-193h-160zM199 0v1282h137v-1282h-137zM354 1511v193h166v-193h-166z" />
<glyph unicode="&#xf1;" horiz-adv-x="1261" d="M55 0v733q0 236 168 404q170 170 406 170q238 0 405.5 -168t167.5 -406v-733h-137v733q0 180 -129 307q-127 129 -307 129t-310 -129q-127 -127 -126 -307v-733h-138zM311 1485q25 102 84 162q57 57 146 57q18 0 34.5 -4t28.5 -8l113 -35q14 -4 22.5 -6t12.5 -4 q10 -2 19 -3.5t13 -1.5q37 0 66 23q31 25 47 66h96q-27 -109 -86 -162q-59 -55 -139 -56h-16q-10 0 -28.5 3.5t-33.5 9.5l-112 37q-10 2 -17.5 3t-15.5 3q-10 2 -18.5 3t-12.5 1q-37 0 -63 -25q-25 -18 -45 -63h-95z" />
<glyph unicode="&#xf2;" horiz-adv-x="1228" d="M45 551v182q0 236 168 404q170 170 405 170q238 0 406 -168t168 -406v-182q0 -236 -170 -406q-170 -152 -404 -151q-236 0 -405 151q-168 168 -168 406zM180 551q0 -182 129 -311q133 -127 309 -127q180 0 308 129q129 129 129 309v182q0 180 -129 307q-127 129 -308 129 q-180 0 -309 -129q-129 -127 -129 -307v-182zM336 1845h178l248 -411h-109z" />
<glyph unicode="&#xf3;" horiz-adv-x="1230" d="M37 551v182q0 236 168 404q170 170 405 170q238 0 406 -168t168 -406v-182q0 -236 -170 -406q-170 -152 -404 -151q-236 0 -405 151q-168 168 -168 406zM172 551q0 -182 129 -311q133 -127 309 -127q180 0 308 129q129 129 129 309v182q0 180 -129 307q-127 129 -308 129 q-180 0 -309 -129q-129 -127 -129 -307v-182zM465 1434l248 411h180l-318 -411h-110z" />
<glyph unicode="&#xf4;" horiz-adv-x="1241" d="M45 551v182q0 236 168 404q170 170 405 170q238 0 406 -168t168 -406v-182q0 -236 -170 -406q-170 -152 -404 -151q-236 0 -405 151q-168 168 -168 406zM180 551q0 -182 129 -311q133 -127 309 -127q180 0 308 129q129 129 129 309v182q0 180 -129 307q-127 129 -308 129 q-180 0 -309 -129q-129 -127 -129 -307v-182zM315 1415l238 416h178l238 -416h-111l-215 314l-219 -314h-109z" />
<glyph unicode="&#xf5;" horiz-adv-x="1247" d="M49 551v182q0 236 168 404q170 170 406 170q238 0 405.5 -168t167.5 -406v-182q0 -236 -170 -406q-170 -152 -403 -151q-236 0 -406 151q-168 168 -168 406zM184 551q0 -182 129 -311q133 -127 310 -127q180 0 307 129q129 129 129 309v182q0 180 -129 307 q-127 129 -307 129t-310 -129q-129 -127 -129 -307v-182zM305 1485q25 102 84 162q57 57 146 57q18 0 34.5 -4t28.5 -8l113 -35l21 -6t11 -4q12 -2 20.5 -3.5t12.5 -1.5q39 0 68 23q27 20 47 66h96q-31 -109 -86 -162q-59 -55 -139 -56h-17q-10 0 -28.5 3.5t-32.5 9.5 l-115 37q-8 2 -16 3t-14 3q-10 2 -18.5 3t-12.5 1q-37 0 -64 -25q-25 -18 -45 -63h-94z" />
<glyph unicode="&#xf6;" horiz-adv-x="1243" d="M47 551v182q0 236 168 404q170 170 406 170q238 0 405.5 -168t167.5 -406v-182q0 -236 -170 -406q-170 -152 -403 -151q-236 0 -406 151q-168 168 -168 406zM182 551q0 -182 129 -311q133 -127 310 -127q180 0 307 129q129 129 129 309v182q0 180 -129 307 q-127 129 -307 129t-310 -129q-129 -127 -129 -307v-182zM344 1511v193h166v-193h-166zM778 1511v193h166v-193h-166z" />
<glyph unicode="&#xf8;" horiz-adv-x="1282" d="M68 551v182q0 236 168 404q170 170 405 170q170 0 315 -97l50 72h168l-113 -160q153 -166 153 -389v-182q0 -236 -170 -406q-170 -152 -403 -151q-170 0 -315 78l-52 -72h-165l112 162q-154 162 -153 389zM203 551q0 -156 98 -275l578 824q-106 70 -238 69 q-180 0 -309 -129q-129 -127 -129 -307v-182zM403 184q109 -72 238 -71q180 0 307 129q129 129 129 309v182q0 154 -96 275z" />
<glyph unicode="&#xf9;" horiz-adv-x="1243" d="M53 551v731h135v-731q0 -182 129 -311q133 -127 308 -127q180 0 309 129t129 309v731h137v-731q0 -236 -170 -406q-170 -152 -405 -151q-233 0 -404 151q-168 168 -168 406zM342 1845h180l246 -411h-106z" />
<glyph unicode="&#xfa;" horiz-adv-x="1243" d="M43 551v731h135v-731q0 -182 129 -311q133 -127 309 -127q178 0 307.5 129t129.5 309v731h137v-731q0 -236 -170 -406q-170 -152 -404 -151q-236 0 -405 151q-168 168 -168 406zM471 1434l248 411h180l-319 -411h-109z" />
<glyph unicode="&#xfb;" horiz-adv-x="1255" d="M53 551v731h137v-731q0 -178 127 -311q133 -127 310 -127q180 0 307 129q129 129 129 309v731h137v-731q0 -236 -170 -406q-170 -152 -403 -151q-236 0 -406 151q-168 168 -168 406zM324 1415l237 416h178l238 -416h-109l-217 314l-219 -314h-108z" />
<glyph unicode="&#xfc;" horiz-adv-x="1257" d="M53 551v731h137v-731q0 -178 127 -311q133 -127 310 -127q180 0 307 129q129 129 129 309v731h137v-731q0 -236 -170 -406q-170 -152 -403 -151q-236 0 -406 151q-168 168 -168 406zM350 1511v193h166v-193h-166zM784 1511v193h166v-193h-166z" />
<glyph unicode="&#xfd;" horiz-adv-x="1241" d="M37 551v731h135v-731q0 -182 129 -311q133 -127 307 -127q180 0 309.5 129t129.5 309v731h137v-731v-416q0 -215 -170 -385t-406 -170q-244 0 -415 180l96 97q133 -139 319 -140q180 0 310 129q129 125 129 289v45q-80 -94 -194 -140t-245 -46q-233 0 -403 151 q-168 168 -168 406zM465 1434l248 411h180l-320 -411h-108z" />
<glyph unicode="&#xff;" horiz-adv-x="1249" d="M43 551v731h135v-731q0 -182 129 -311q133 -127 307 -127q180 0 309.5 129t129.5 309v731h137v-731v-416q0 -215 -170 -385t-406 -170q-244 0 -415 180l96 97q133 -139 319 -140q180 0 310 129q129 125 129 289v45q-80 -94 -194 -140t-245 -46q-233 0 -403 151 q-168 168 -168 406zM338 1511v193h166v-193h-166zM774 1511v193h166v-193h-166z" />
<glyph unicode="&#x152;" horiz-adv-x="2271" d="M76 614v488q0 264 188.5 452.5t452.5 188.5q154 0 286 -66.5t220 -179.5v223h1009v-137h-874q0 -135 1 -272.5t1 -274.5h600v-162h-600v-235h-2v-504h874v-135h-1009v223q-88 -113 -220.5 -171t-285.5 -58q-264 0 -453 170q-188 188 -188 450zM211 618q0 -209 147 -358 q150 -147 359 -147t356 147q150 149 150 358v484q0 209 -150 356q-147 150 -356 150t-359 -150q-147 -147 -147 -356v-484z" />
<glyph unicode="&#x153;" horiz-adv-x="2295" d="M74 551v182q0 236 168 404q170 170 405 170q80 0 156 -22.5t141.5 -62.5t117.5 -95.5t89 -122.5q37 68 90 123t118.5 95t141.5 62.5t156 22.5q236 0 403 -168q170 -166 170 -406v-160h-1009v-22q0 -178 127 -311q133 -127 309 -127q188 0 321 141l97 -96 q-176 -164 -418 -164q-166 0 -299 74.5t-207 212.5q-74 -135 -206 -211t-298 -76q-236 0 -405 151q-168 168 -168 406zM209 551q0 -182 129 -311q133 -127 309 -127q180 0 307 129q129 129 129 309v182q0 180 -129 307q-127 129 -307 129t-309 -129q-129 -127 -129 -307 v-182zM1221 711h872v22q0 180 -129 307q-127 129 -307 129q-178 0 -307 -129q-129 -127 -129 -307v-22z" />
<glyph unicode="&#x2000;" horiz-adv-x="1126" />
<glyph unicode="&#x2001;" horiz-adv-x="2253" />
<glyph unicode="&#x2002;" horiz-adv-x="1126" />
<glyph unicode="&#x2003;" horiz-adv-x="2253" />
<glyph unicode="&#x2004;" horiz-adv-x="751" />
<glyph unicode="&#x2005;" horiz-adv-x="563" />
<glyph unicode="&#x2006;" horiz-adv-x="375" />
<glyph unicode="&#x2007;" horiz-adv-x="375" />
<glyph unicode="&#x2008;" horiz-adv-x="281" />
<glyph unicode="&#x2009;" horiz-adv-x="450" />
<glyph unicode="&#x200a;" horiz-adv-x="125" />
<glyph unicode="&#x2010;" d="M86 573v138h686v-138h-686z" />
<glyph unicode="&#x2011;" d="M86 573v138h686v-138h-686z" />
<glyph unicode="&#x2012;" d="M86 573v138h686v-138h-686z" />
<glyph unicode="&#x2013;" horiz-adv-x="1198" d="M86 573v138h1024v-138h-1024z" />
<glyph unicode="&#x2014;" horiz-adv-x="2222" d="M86 573v138h2048v-138h-2048z" />
<glyph unicode="&#x202f;" horiz-adv-x="450" />
<glyph unicode="&#x205f;" horiz-adv-x="563" />
<glyph unicode="&#x2122;" horiz-adv-x="1456" d="M59 1653v67h504v-67h-203v-559h-98v559h-203zM713 1094v626h139l197 -499l184 499h137v-626h-84v553l-209 -553h-59l-219 553v-553h-86z" />
<glyph unicode="&#x25fc;" horiz-adv-x="1280" d="M0 0v1280h1280v-1280h-1280z" />
</font>
</defs>
</svg>
